<?xml version="1.0" encoding="UTF-8"?>
<svg xmlns="http://www.w3.org/2000/svg" xmlns:xlink="http://www.w3.org/1999/xlink" viewBox="0 0 975.83 250.11">
  <defs>
    <clipPath id="clippath">
      <rect x="-2276.06" y="-2.55" width="1920" height="1080" style="fill: none;"/>
    </clipPath>
    <clipPath id="clippath-1">
      <rect x="-1757.62" y="541.43" width="519.72" height="536.02" style="fill: none;"/>
    </clipPath>
    <clipPath id="clippath-2">
      <rect x="-1676.55" y="5.4" width="519.72" height="536.02" style="fill: none;"/>
    </clipPath>
    <clipPath id="clippath-3">
      <rect x="-1240.49" y="541.43" width="518.45" height="536.02" style="fill: none;"/>
    </clipPath>
    <clipPath id="clippath-4">
      <rect x="-722.04" y="541.43" width="519.72" height="536.02" style="fill: none;"/>
    </clipPath>
    <clipPath id="clippath-5">
      <rect x="-1159.43" y="5.4" width="518.45" height="536.02" style="fill: none;"/>
    </clipPath>
    <clipPath id="clippath-6">
      <rect x="-640.98" y="5.4" width="519.72" height="536.02" style="fill: none;"/>
    </clipPath>
    <image id="image" width="3840" height="2160" xlink:href="1378283.png"/>
  </defs>
  <g id="Calque_1" data-name="Calque 1">
    <g style="clip-path: url(#clippath);">
      <g style="clip-path: url(#clippath-1);">
        <use transform="translate(-1757.62 -2.55) scale(.5)" xlink:href="#image"/>
      </g>
      <g style="clip-path: url(#clippath-2);">
        <use transform="translate(-1676.55 -538.57) scale(.5)" xlink:href="#image"/>
      </g>
      <g style="clip-path: url(#clippath-3);">
        <use transform="translate(-1240.49 -2.55) scale(.5)" xlink:href="#image"/>
      </g>
      <g style="clip-path: url(#clippath-4);">
        <use transform="translate(-722.04 -2.55) scale(.5)" xlink:href="#image"/>
      </g>
      <g style="clip-path: url(#clippath-5);">
        <use transform="translate(-1159.43 -538.57) scale(.5)" xlink:href="#image"/>
      </g>
      <g style="clip-path: url(#clippath-6);">
        <use transform="translate(-640.98 -538.57) scale(.5)" xlink:href="#image"/>
      </g>
    </g>
  </g>
  <g id="Calque_3" data-name="Calque 3">
    <g>
      <path d="m124.61,28.59c-17.54,24.53-18.86,26.15-21.33,27.18-3.8,1.51-11.27,6.57-15.67,10.61l-3.74,3.5,4.04,1.33c2.23.78,4.16,1.57,4.28,1.81.24.36-8.38,12.66-25.61,36.34-8.68,11.87-9.16,13.2-5.72,14.64,2.47,1.02,5.18.66,6.99-1.02,1.45-1.33,6.03-8.32,17.48-26.64,6.63-10.55,8.2-12.59,13.26-17.48,12.11-11.57,27.54-19.77,40.8-21.51,7.71-1.02,25.73-.36,35.13,1.27,9.64,1.69,19.89,4.76,27.06,8.2,3.13,1.45,5.79,2.59,5.91,2.47s-1.63-1.45-3.86-2.95c-17.3-11.45-39.65-18.68-60.74-19.52-10.06-.42-16.27.36-24.41,3.01-2.47.78-4.58,1.39-4.64,1.33-.12-.06,6.57-11.03,14.82-24.35s14.95-24.23,14.82-24.23c-.06,0-8.56,11.75-18.86,26.03Z"/>
      <path d="m81.88,46.12l-18.08,35.68-5.06,3.56c-13.02,9.16-22.6,22.42-27.36,37.84-1.57,5.06-1.75,5.3-4.28,6.51-5.36,2.65-11.45,11.15-14.88,20.79-3.68,10.37-5.42,28.99-4.1,43.03,1.27,12.47,4.64,23.5,7.47,24.04,4.4.84,9.7-14.88,13.08-38.87.72-4.94,2.23-14.76,3.43-21.88,1.87-11.33,2.11-13.8,1.81-19.65l-.36-6.75,4.46-7.65c2.47-4.22,5.24-8.68,6.15-9.88,2.89-3.86,8.86-10.91,9.04-10.67.12.12-1.75,4.22-4.16,9.04-4.82,9.76-4.94,10.73-.96,11.09,3.5.3,4.76-1.45,10.49-14.34,9.82-22.36,41.88-97.2,41.64-97.38-.12-.12-8.32,15.85-18.32,35.49Z"/>
      <path d="m319.44,93.85c-12.05,10.12-61.29,49.17-61.59,48.87-.12-.12,3.07-8.68,7.05-18.98,4.04-10.37,7.17-19.22,6.99-19.71-.3-.72-3.68-.84-21.88-.84-22.96,0-61.71,1.14-59.24,1.81.84.24,9.58,1.57,19.4,3.01,9.82,1.51,17.78,2.83,17.6,3.07-.12.24-2.35.66-4.94.9-4.46.42-4.58.48-2.23.96,6.27,1.39,6.15,1.45-5.54,2.59-6.39.6-11.63,1.27-11.63,1.45s4.28,1.45,9.52,2.83l9.46,2.47-3.62,1.02c-1.99.6-5.66,1.69-8.14,2.47l-4.52,1.39,15.55.06c12.78.06,15.49.18,15.49.9,0,1.02-24.77,64.54-28.93,74.18-4.22,9.76-15.73,38.87-15.37,38.87.06,0,4.58-6.93,9.94-15.37,5.42-8.44,9.94-15.31,10-15.19.12.12-.6,3.56-1.57,7.59-1.02,4.04-1.81,7.53-1.81,7.77.06.24.72-.84,1.57-2.41,1.51-2.89,2.29-3.8,1.69-1.87-.3.9-.18.9.66-.12,1.14-1.33,1.14-1.45-.06,9.04l-.36,3.01,1.14-1.81c.66-1.02,2.89-4.88,4.94-8.62,2.11-3.74,3.92-6.75,3.98-6.63.12.12-.72,4.64-1.87,10.06-1.14,5.42-1.99,9.94-1.93,10.06.18.12,19.04-44.41,21.94-51.7,1.51-3.86,1.93-4.34,8.44-9.64,3.74-3.07,7.17-5.6,7.59-5.6.54,0,2.71,7.95,6.51,23.86,3.19,13.14,6.15,24.35,6.57,24.89.72.84,2.53.96,13.08.96,7.29,0,12.78-.24,13.62-.66.78-.3,3.56-3.5,6.21-7.05,7.11-9.46,5.36-8.56,16.81-8.56,6.15,0,10,.24,10.12.6s-.06,3.62-.36,7.23c-.42,5.06-.36,6.81.24,7.53.66.78,3.56.9,20.43.9,14.7-.06,19.89-.24,20.61-.78.54-.42,5.3-9.76,10.55-20.85,5.24-11.03,9.64-19.77,9.76-19.46.12.36-.06,6.51-.42,13.74-.36,9.1-.36,13.44.06,13.92.66.84,13.74,1.08,15.67.3.54-.24,6.03-6.63,12.17-14.16,6.15-7.59,11.21-13.5,11.21-13.2,0,.36-3.25,9.16-7.23,19.65-3.98,10.43-7.05,19.4-6.87,19.95.3.78,1.87.9,9.88.9s9.58-.12,10.43-1.08c.54-.6,6.81-18.02,13.98-38.69,9.88-28.68,12.78-37.72,12.29-38.39-.9-1.02-18.38-1.14-20.73-.06-1.27.54-9.7,10.67-32.06,38.39-.78,1.02-.78-2.59.06-18.62.6-12.35.72-18.62.3-19.34-.54-1.02-1.39-1.14-9.76-1.14-6.99.06-9.4.24-10.3.9-.6.48-7.83,14.1-16.03,30.25l-14.95,29.41h-3.19q-3.25,0-3.13-1.81c2.65-35.49,3.86-57.07,3.19-57.85-.6-.72-2.53-.9-9.88-.9-5.97.06-9.52.3-10.43.78-.72.42-10.85,12.9-22.48,27.84-22.24,28.44-22.72,28.99-23.14,28.56-.24-.24-11.21-45.2-11.21-45.92,0-.18,12.84-10.85,28.5-23.68,28.38-23.32,42.42-35.01,44.71-37.12,1.39-1.33,2.83-1.81-11.87,4.04-4.4,1.75-8.14,3.07-8.2,2.95-.12-.06.9-1.81,2.29-3.86,1.39-2.11,2.35-3.68,2.05-3.56s-2.23,1.14-4.28,2.23c-3.56,1.81-4.76,1.93-3.07.24,1.08-1.08.12-1.51-1.93-.84-2.11.78-2.11.72,1.08-3.68,1.14-1.57,1.99-2.95,1.87-3.07s-4.82,3.68-10.49,8.38Zm15.19,82.56l-1.33,9.04-5.54.18c-3.07.06-5.6,0-5.6-.18,0-.96,13.56-19.65,13.68-18.92.12.48-.42,4.88-1.21,9.88Z"/>
      <path d="m605.08,104.16c-6.63.42-13.14.84-14.46.96-1.87.12.6.96,11.45,3.74,17.36,4.4,17.05,4.34,13.26,4.88-1.63.24-3.56.66-4.22.96-.96.36-.78.48.9.54,1.14.06,2.77.3,3.62.54,1.21.36.6.66-3.31,1.51-2.65.6-6.03,1.39-7.53,1.81l-2.71.72,5.66.78c3.37.48,5.36.96,4.82,1.27-.48.24-5.12,1.51-10.3,2.77-5.24,1.27-9.52,2.53-9.52,2.77s7.17.48,15.97.48c9.82,0,15.97.24,15.97.6,0,.3-6.81,18.02-15.13,39.29-14.16,36.28-24.95,65.44-24.41,65.99.12.12,2.29-3.01,4.88-7.05,2.53-3.98,4.76-7.23,4.94-7.23s.12,1.33-.12,3.01c-.24,1.63-.3,3.01-.12,3.01s1.87-2.47,3.74-5.42c1.93-3.01,3.56-5.42,3.62-5.3.12.12-2.23,13.02-4.22,22.78-.18.84,1.63-2.23,3.98-6.87,2.29-4.58,4.34-8.26,4.46-8.14s.78,3.19,1.45,6.81c.72,3.68,1.39,6.69,1.51,6.81s2.41-6.09,5.18-13.8c5.42-15.19,16.51-43.75,17.3-44.53.24-.24,4.04-.66,8.44-.9l7.95-.42.36,1.45c6.87,28.93,9.58,39.59,10.37,40.44.9,1.02,2.89,1.08,26.39,1.08s25.55-.06,26.76-1.08c.66-.54,2.59-4.22,4.28-8.2,3.43-8.08,3.37-8.8-.96-8.8-1.81,0-2.65-.24-2.65-.78,0-1.02,16.69-40.13,17.54-41.22.54-.6,2.71-.78,8.44-.78,4.22,0,7.83.24,8.01.48.12.24-5.3,13.56-12.11,29.53-7.17,16.81-12.23,29.47-11.99,30.01.3.84,2.35.9,18.02.72,20.13-.3,22.54-.72,32.78-5.6,13.32-6.27,23.38-16.45,29.47-29.53,4.7-10.24,6.09-22.24,3.31-29.41-1.63-4.1-5.79-8.62-9.7-10.55-7.11-3.37-6.93-3.37-47.19-3.62-32.18-.18-37.48-.06-38.63.72-1.69,1.08-7.77,14.88-7.23,16.27.24.72,1.21.96,3.31.96,1.93,0,2.95.24,2.95.72,0,.96-16.81,40.32-17.66,41.34-.42.54-2.29.72-6.69.6l-6.09-.18-3.56-14.4c-3.19-13.02-3.43-14.46-2.59-15.07.54-.36,2.65-1.63,4.7-2.77,12.59-7.11,23.14-23.32,25.25-38.57,1.39-10.12-1.81-18.26-8.92-22.78-6.27-4.04-5.91-3.98-43.21-4.1-23.08-.06-37.54.12-45.8.72Zm65.08,20.19c2.95.78,5.48,3.07,6.39,5.79,1.57,4.76-1.51,13.8-5.91,17.72-3.13,2.71-8.86,5.24-14.28,6.27-5.54,1.08-15.43,1.21-15.43.24,0-.9,10.91-29.05,11.63-29.95s14.16-1.02,17.6-.06Zm110.34,35.92c3.31,1.69,4.58,4.16,4.58,8.92-.06,13.32-10.43,27-23.5,31.04-3.98,1.21-10.97,1.63-10.97.66,0-.6,16.33-38.87,17.54-41.1.6-1.21,1.02-1.27,5.36-1.02,3.07.18,5.42.66,6.99,1.51Z"/>
      <path d="m99.06,109.22c-10.67,1.81-21.33,8.8-27.78,18.32-11.09,16.33-13.68,40.5-6.63,61.71,6.81,20.55,21.21,36.64,38.03,42.48,6.69,2.35,16.27,2.95,22.42,1.39,22.42-5.6,36.64-29.05,35.37-58.21-.48-11.75-3.31-22.6-8.56-32.84-3.8-7.41-7.53-12.47-13.56-18.38-11.57-11.33-26.03-16.69-39.29-14.46Z"/>
      <path d="m469.37,141.64c-1.81,1.45-7.47,15.25-6.69,16.21.36.42,1.81.78,3.25.78s2.71.18,2.83.42c.12.3-5.36,13.62-12.23,29.71-8.98,20.91-12.35,29.47-11.93,29.95.48.6,8.98.78,38.69.78,32.24,0,38.27-.12,39.29-.84.84-.6,4.22-8.08,9.64-21.39,4.58-11.33,8.5-20.55,8.74-20.55.18,0,2.05,9.16,4.16,20.31,2.29,12.29,4.16,20.79,4.7,21.39.78.9,1.99,1.08,8.5,1.08,5.24-.06,7.89-.3,8.62-.84,1.39-1.02,33.26-75.99,32.84-77.2-.54-1.33-17.6-1.33-19.46-.06-.84.6-4.16,8.01-9.64,21.39-4.58,11.33-8.5,20.55-8.68,20.55s-2.05-9.16-4.16-20.31c-2.47-13.38-4.1-20.73-4.7-21.39-1.45-1.57-14.95-1.57-16.81,0-.72.6-6.09,12.47-13.14,29.05-6.57,15.43-12.29,28.62-12.78,29.35l-.84,1.39h-18.68c-10.3,0-18.68-.12-18.68-.3,0-.54,3.8-9.04,4.4-9.82.42-.54,3.25-.72,10.37-.72,8.5,0,10-.12,11.03-1.08.66-.54,2.59-4.28,4.28-8.2,2.29-5.48,2.89-7.41,2.41-8.01-.54-.6-3.01-.78-10.24-.78-5.3,0-9.58-.24-9.58-.54,0-1.08,5-12.41,5.66-12.84,1.08-.72,10-.6,10,.12,0,.36-.36,1.57-.84,2.65-.6,1.51-.66,2.23-.18,2.71.96.96,16.09.84,17.36-.12.54-.42,3.07-5.6,5.6-11.51,3.56-8.38,4.46-10.97,3.92-11.57-.54-.72-5.6-.84-28.2-.84-25.13,0-27.6.12-28.81,1.08Z"/>
      <path d="m817.92,141.88c-1.75,1.69-7.35,14.52-6.81,15.85.24.66,1.21.9,3.43.9,2.65,0,3.07.12,2.83,1.02-.18.6-5.79,13.92-12.47,29.59-6.69,15.73-12.05,28.93-11.87,29.41.3.72,6.57.84,40.92.84,37.84,0,40.68-.06,41.64-1.08.6-.54,3.31-6.33,6.03-12.78l4.94-11.75,3.43-.18c2.41-.12,3.56.06,3.74.6.12.42.84,5.91,1.51,12.23.96,8.86,1.51,11.63,2.23,12.17.78.6,6.27.78,23.02.72,12.11-.06,24.35-.24,27.18-.48l5.12-.36-6.51-.84c-7.11-.9-8.98-1.81-3.92-1.93,1.75-.06,4.7-.24,6.51-.48l3.31-.42-4.52-.42c-9.28-.96-10.61-1.21-9.34-1.69,1.02-.36.96-.48-.42-.48-2.35-.06-2.11-1.02.42-1.87,2.41-.78,2.71-1.57.84-2.11-.72-.24-1.02-.66-.78-.9.3-.24,7.41-2.05,15.73-3.98,8.38-1.93,15.13-3.56,15.01-3.74-.12-.12-11.81.24-25.97.84-18.02.66-25.91.78-26.33.36-.36-.36-.96-3.8-1.33-7.65-.78-7.77-.84-7.59,3.25-9.64,3.01-1.57,8.86-7.29,11.51-11.33,5.06-7.71,6.51-17.23,3.5-23.08-1.63-3.19-5.48-6.27-9.46-7.53-1.51-.48-8.86-.84-21.63-.96-16.75-.24-19.65-.12-20.73.66-1.87,1.27-7.89,15.43-7.05,16.45.36.42,1.69.78,2.95.78s2.35.18,2.35.42c0,.72-16.99,40.74-17.66,41.58-.72.96-41.4,1.14-41.4.24,0-1.02,3.19-8.14,4.1-9.28.78-.9,2.11-1.02,10.61-1.02,6.69-.06,10-.24,10.67-.78,1.39-1.08,7.23-14.95,6.81-16.21-.3-.96-1.21-1.08-10.3-1.08-7.71,0-9.88-.18-9.64-.78,2.11-5.3,4.88-11.75,5.36-12.35.66-.72,9.58-1.08,10.24-.36.24.18,0,1.33-.48,2.47-1.57,3.62-1.21,3.8,7.83,3.8,6.81,0,8.26-.18,9.28-1.08,1.57-1.39,10-21.45,9.58-22.66-.36-.84-3.43-.96-28.08-.96h-27.72l-1.45,1.33Zm93.23,17.36c4.58,1.75.84,11.45-5.66,14.76-3.43,1.75-9.46,2.17-10,.66-.48-1.21,4.94-13.68,6.45-15.01,1.45-1.14,6.63-1.45,9.22-.42Z"/>
      <path d="m42.59,158.39c-2.59,3.31-1.93,8.68,1.14,8.68,2.89,0,4.76-5.97,2.65-8.92-1.21-1.75-2.29-1.69-3.8.24Z"/>
    </g>
  </g>
</svg>